<svg id="icons" enable-background="new 0 0 64 64" height="512" viewBox="0 0 64 64" width="512" xmlns="http://www.w3.org/2000/svg"><path d="m45.477 27.18-13-7.059c-.297-.162-.657-.162-.954 0l-13 7.059c-.377.205-.582.627-.508 1.05l1.649 9.521c.641 3.701 2.63 7.006 5.602 9.304l6.122 4.736c.18.14.396.209.612.209.214 0 .428-.068.607-.205l6.039-4.611c3.013-2.301 5.029-5.625 5.676-9.36l1.663-9.594c.074-.423-.131-.845-.508-1.05zm-3.125 10.301c-.561 3.237-2.308 6.118-4.919 8.112l-5.428 4.145-5.514-4.266c-2.575-1.992-4.3-4.855-4.855-8.063l-1.527-8.814 11.891-6.457 11.892 6.457z"/><path d="m38.862 36.877c-.375 2.164-1.543 4.091-3.29 5.424l-3.57 2.726-3.631-2.809c-1.722-1.332-2.875-3.247-3.246-5.392l-1.019-5.885 2.37-1.286-.954-1.758-3 1.629c-.377.205-.582.627-.508 1.05l1.142 6.592c.457 2.638 1.875 4.993 3.993 6.632l4.239 3.279c.18.14.396.209.612.209.214 0 .428-.068.607-.205l4.181-3.192c2.148-1.641 3.585-4.01 4.046-6.672l1.151-6.643c.073-.423-.131-.845-.508-1.05l-2.997-1.627-.954 1.758 2.366 1.284z"/><path d="m31.522 24.64-3.999 2.171.954 1.758 3.521-1.912 3.527 1.915.954-1.758-4.004-2.174c-.297-.162-.655-.162-.953 0z"/><path d="m63.97 62.758-1-4c-.111-.446-.511-.758-.97-.758h-1.219l-.811-3.242c-.111-.446-.511-.758-.97-.758h-.219l-.811-3.242c-.111-.446-.511-.758-.97-.758h-1v-28h1c.459 0 .859-.312.97-.758l.811-3.242h1.219c.459 0 .859-.312.97-.758l1-4c.075-.299.007-.615-.182-.857-.189-.243-.48-.385-.788-.385h-1v-2.748c0-.44-.288-.828-.708-.957l-26.999-8.224c-.19-.057-.393-.057-.583 0l-27.002 8.224c-.42.129-.708.517-.708.957v2.748h-1c-.308 0-.599.142-.788.385-.189.242-.257.559-.182.857l1 4c.111.446.511.758.97.758h1.219l.811 3.242c.111.446.511.758.97.758h1v28h-1c-.459 0-.859.312-.97.758l-.811 3.242h-.219c-.459 0-.859.312-.97.758l-.811 3.242h-1.219c-.459 0-.859.312-.97.758l-1 4c-.075.299-.007.615.182.857.189.243.48.385.788.385h62c.308 0 .599-.142.788-.385.19-.242.257-.558.182-.857zm-7.751-10.758.5 2h-9.438l.5-2zm-6.219-8v-22h4v28h-4v-4h-2v4h-1c-.459 0-.859.312-.97.758l-.811 3.242h-26.438l-.811-3.242c-.111-.446-.511-.758-.97-.758h-1v-28h1c.459 0 .859-.312.97-.758l.811-3.242h26.438l.811 3.242c.111.446.511.758.97.758h1v22zm6.219-24h-8.438l-.5-2h9.438zm-51.438-4-.5-2h11.719v-2h-10v-2.007l26.001-7.92 25.999 7.92v2.007h-40v2h41.719l-.5 2zm3 4-.5-2h9.438l-.5 2zm6.219 2v28h-4v-28zm-6.219 30h8.438l.5 2h-9.438zm-2 4h52.438l.5 2h-53.438zm-3.5 6 .5-2h58.438l.5 2z"/><path d="m32 11c2.206 0 4-1.794 4-4s-1.794-4-4-4-4 1.794-4 4 1.794 4 4 4zm0-6c1.103 0 2 .897 2 2s-.897 2-2 2-2-.897-2-2 .897-2 2-2z"/><path d="m28.293 35.707 3 3c.188.189.442.293.707.293.015 0 .03 0 .045-.001.281-.013.543-.143.723-.358l5-6-1.536-1.281-4.299 5.159-2.226-2.226z"/><path d="m31 41h2v2h-2z"/><path d="m31 29h2v2h-2z"/></svg>