<svg id="Ñëîé_1" data-name="Ñëîé 1" xmlns="http://www.w3.org/2000/svg" viewBox="0 0 335.46 317.93"><defs><style>.cls-1{fill:#d4ecff;}.cls-2{fill:#5793ce;}.cls-3{fill:#c4d9e8;}.cls-4{fill:#173d7a;}.cls-5{fill:#fff;}.cls-6{fill:#396caa;}.cls-7{fill:#d3d0cf;}.cls-8{fill:#f2f2f2;}.cls-9{fill:#ffc2b0;}.cls-10{fill:#ea9c92;}.cls-11{fill:#ff2c9c;}.cls-12{fill:#274f89;}.cls-13{fill:#d3008d;}</style></defs><title>login-bg</title><path class="cls-1" d="M600,301.4l-66.15,41A15.7,15.7,0,0,0,528.74,364L551,400h49V301.4Z" transform="translate(-264.54 -82.07)"/><rect class="cls-2" x="515.93" y="300.83" width="1.91" height="5.54" transform="translate(418.1 -354.54) rotate(75.62)"/><rect class="cls-2" x="513.19" y="303.51" width="1.91" height="5.54" transform="translate(418.67 -349.86) rotate(75.63)"/><rect class="cls-2" x="510.45" y="306.18" width="1.91" height="5.54" transform="translate(419.19 -345.21) rotate(75.63)"/><rect class="cls-2" x="507.71" y="308.85" width="1.91" height="5.54" transform="translate(419.7 -340.55) rotate(75.62)"/><path class="cls-3" d="M401,137.13l-50.4,29.57c-12.78-3.92-29.06-2.71-39.8,3.59-13.07,7.67-13,20,.19,27.44a40.16,40.16,0,0,0,9.91,3.89,52.85,52.85,0,0,0,7.88,1.36c10.48,1,21.67-.85,29.73-5.58,9.77-5.73,12.18-14,7.28-21l7-4.08-0.2-4.41,7.32-.05-0.18-4.13,7.32-.05-0.18-4.13,7.32-.05-0.18-4.13,7.32-.05-0.18-4.13,7.81-.05,2.38-1.4,2.63-10.86Zm-70.92,56.57a13.68,13.68,0,0,1-12.37.09c-3.43-1.95-3.45-5.15-.05-7.14a13.67,13.67,0,0,1,12.37-.09C333.45,188.51,333.47,191.71,330.07,193.71Z" transform="translate(-264.54 -82.07)"/><path class="cls-3" d="M428.55,324.17l-68-39.08c-4.58-2.64-4-7.26,1.28-10.31l66-38.09c5.28-3.05,13.28-3.38,17.85-.74l68,39.08c4.58,2.64,4,7.26-1.28,10.31l-66,38.09C441.12,326.48,433.13,326.81,428.55,324.17Z" transform="translate(-264.54 -82.07)"/><path class="cls-2" d="M508.24,235.57l-11.75-6.78,43.32-25c2-1.18,2-3.1,0-4.28l-44.26-25.55a8.21,8.21,0,0,0-7.42,0l-43.32,25-11.75-6.78,43.32-25c8.52-4.92,22.4-4.92,30.92,0l44.26,25.55c8.53,4.92,8.53,12.93,0,17.85Z" transform="translate(-264.54 -82.07)"/><path class="cls-1" d="M527.2,238.55c0-6.28-3.82-13.58-8.53-16.3l-78.49-45.32c-2.11-1.22-4-1.3-5.53-.47h0l-93.72,54.46,90.63,68.29,92.33-53.59a4.28,4.28,0,0,0,.82-0.47h0C526.24,244,527.2,241.69,527.2,238.55Z" transform="translate(-264.54 -82.07)"/><path class="cls-4" d="M431.55,299.22l92.33-53.59a4.27,4.27,0,0,0,.82-0.47h0c1.54-1.17,2.5-3.46,2.5-6.6a20.93,20.93,0,0,0-2.3-9.08L419.64,290.25Z" transform="translate(-264.54 -82.07)"/><path class="cls-2" d="M425.65,299l-78.49-45.32c-4.71-2.72-8.53-10-8.53-16.3h0c0-6.28,3.82-9.17,8.53-6.45l78.49,45.32c4.71,2.72,8.53,10,8.53,16.3h0C434.18,298.81,430.36,301.7,425.65,299Z" transform="translate(-264.54 -82.07)"/><path class="cls-5" d="M413.89,283.69l-9.44-5.44a4.07,4.07,0,0,1-1.7-3.25h0c0-1.25.76-1.83,1.7-1.29l9.44,5.44a4.07,4.07,0,0,1,1.7,3.25h0C415.59,283.66,414.83,284.23,413.89,283.69Z" transform="translate(-264.54 -82.07)"/><polygon class="cls-6" points="78.49 42.04 94.62 51.2 111.07 41.54 111.03 37.34 110.89 37.43 110.87 37.13 118.19 37.08 118.15 32.94 125.33 32.89 125.28 28.76 132.46 28.71 132.42 24.57 139.59 24.52 139.55 20.39 147.22 20.33 149.61 18.93 152.24 8.08 152.19 3.88 150.93 7.9 139.31 6.35 78.49 42.04"/><polygon class="cls-1" points="94.57 47 111.03 37.34 110.83 32.93 118.15 32.88 117.96 28.74 125.28 28.69 125.1 24.56 132.42 24.51 132.23 20.37 139.55 20.32 139.37 16.19 147.18 16.13 149.56 14.73 152.19 3.88 139.27 2.15 78.44 37.84 94.57 47"/><path class="cls-6" d="M370.07,122.64a22.67,22.67,0,0,0-7.47-6.44,38.56,38.56,0,0,0-7.73-3.26l-11.89,7,16.13,9.16Z" transform="translate(-264.54 -82.07)"/><polygon class="cls-2" points="151.75 5.7 152.19 3.88 150.03 3.59 98.64 33.74 101.34 35.28 151.75 5.7"/><polygon class="cls-7" points="39.51 55.29 39.33 49.32 41.24 53.35 39.51 55.29"/><path class="cls-6" d="M314,150.79c13.18,7.48,34.45,7.34,47.52-.33,6.55-3.84,9.8-8.85,9.74-13.83h0l-0.18-6.33L370,131.5c-1.52-3.12-4.4-6.05-8.68-8.48-13.18-7.48-34.45-7.34-47.52.33S300.81,143.3,314,150.79Zm19-11.17c3.43,1.95,3.45,5.15.05,7.14a13.67,13.67,0,0,1-12.37.09c-3.43-1.95-3.45-5.15-.05-7.14A13.67,13.67,0,0,1,333,139.62Z" transform="translate(-264.54 -82.07)"/><path class="cls-8" d="M313.81,144.82c13.18,7.48,34.45,7.34,47.52-.33s13-20-.19-27.44-34.45-7.34-47.52.33S300.63,137.33,313.81,144.82Zm19-11.17c3.43,1.95,3.45,5.15.05,7.14a13.67,13.67,0,0,1-12.37.09c-3.43-1.95-3.45-5.15-.05-7.14A13.67,13.67,0,0,1,332.84,133.65Z" transform="translate(-264.54 -82.07)"/><path class="cls-2" d="M329.08,148.09a13.49,13.49,0,0,1-8.39-1.24c-2.46-1.4-3.16-3.44-2.11-5.22l-6-4.73-6.21-7c-4.81,7-2.28,15.3,7.57,20.9a41.52,41.52,0,0,0,14.74,4.68Z" transform="translate(-264.54 -82.07)"/><path class="cls-1" d="M313.81,144.82a40.12,40.12,0,0,0,9.91,3.89,52.87,52.87,0,0,0,7.88,1.36c10.48,1,21.67-.85,29.73-5.58,13.07-7.67,13-20-.19-27.44s-34.45-7.34-47.52.33S300.63,137.33,313.81,144.82Zm19-11.17c3.43,1.95,3.45,5.15.05,7.14a13.67,13.67,0,0,1-12.37.09c-3.43-1.95-3.45-5.15-.05-7.14A13.67,13.67,0,0,1,332.84,133.65Z" transform="translate(-264.54 -82.07)"/><path class="cls-6" d="M307.58,131.22c0.64-3.82,3.48-7.56,8.52-10.52,11.63-6.82,30.56-7,42.28-.3,5.83,3.31,8.77,7.67,8.84,12.06,0.84-5-2.06-10.12-8.7-13.89-11.72-6.66-30.65-6.53-42.28.3C310.4,122.31,307.51,126.78,307.58,131.22Z" transform="translate(-264.54 -82.07)"/><path class="cls-6" d="M299.65,185.53a13.19,13.19,0,0,1-6.59-1.7c-4.72-2.68-7.35-8.06-7.4-15.16-0.09-12.95,8.92-28.81,20.09-35.37,6.12-3.59,12.09-4.09,16.81-1.41a13.21,13.21,0,0,1,4.89,4.89A20.36,20.36,0,0,1,330,147.05c0.09,12.95-8.92,28.81-20.09,35.37A20.42,20.42,0,0,1,299.65,185.53ZM316,134.95a15.74,15.74,0,0,0-7.8,2.45c-9.86,5.79-17.82,19.8-17.74,31.24,0,5.33,1.81,9.26,5,11.06s7.46,1.32,12.06-1.38c9.87-5.79,17.82-19.8,17.74-31.24a15.94,15.94,0,0,0-1.86-7.9h0A8.25,8.25,0,0,0,316,134.95Z" transform="translate(-264.54 -82.07)"/><path class="cls-1" d="M322.16,145.46l9.38,2.3,1.35-7a13.67,13.67,0,0,1-12.37.09Z" transform="translate(-264.54 -82.07)"/><path class="cls-1" d="M313.81,144.82a40.12,40.12,0,0,0,9.91,3.89,52.87,52.87,0,0,0,7.88,1.36c10.48,1,21.67-.85,29.73-5.58l-38.2-.86Z" transform="translate(-264.54 -82.07)"/><path class="cls-6" d="M327.92,149.64a55.43,55.43,0,0,1-8.3-2.14v5.86a45.44,45.44,0,0,0,8.2,2.1C336.57,156.62,327.92,149.64,327.92,149.64Z" transform="translate(-264.54 -82.07)"/><path class="cls-2" d="M321.83,148.21a38.86,38.86,0,0,1-5.4-2c-5.11-2.39,1.35,6.47,1.35,6.47s1.74,0.69,4.05,1.4v-5.88Z" transform="translate(-264.54 -82.07)"/><polygon class="cls-2" points="153.13 169.12 136.41 179.9 128.28 178.58 148.15 168.97 153.13 169.12"/><path class="cls-4" d="M397.46,305.62s-4.81-2.43-7.77,1.19-7.18,12.15-7.31,17.92,4.56,5.38,7.35,4,10.94-13.19,11.44-15.51-0.58-5.45-1.37-6.06S397.46,305.62,397.46,305.62Z" transform="translate(-264.54 -82.07)"/><path class="cls-2" d="M398.51,304.46l0.22,5a2.83,2.83,0,0,1-1.41,2.59,5.55,5.55,0,0,1-3.71.58c-3.63-.58-4-1.62-4.21-6.61S398.51,304.46,398.51,304.46Z" transform="translate(-264.54 -82.07)"/><path class="cls-4" d="M379.84,296s-4.81-2.43-7.77,1.19-7.18,12.15-7.31,17.92,4.56,5.38,7.35,4S383,306,383.54,303.64s-0.58-5.45-1.37-6.06S379.84,296,379.84,296Z" transform="translate(-264.54 -82.07)"/><path class="cls-2" d="M380.89,294.87l0.22,5a2.83,2.83,0,0,1-1.41,2.59A5.55,5.55,0,0,1,376,303c-3.63-.58-4-1.62-4.21-6.61S380.89,294.87,380.89,294.87Z" transform="translate(-264.54 -82.07)"/><path class="cls-1" d="M423.85,203.29c-1.42-23.19-25.11,3.41-25.11,3.41l-16.21,15.89-14.6,16a14.39,14.39,0,0,0-3.63,11.56l5.91,45a4.42,4.42,0,0,0,4.43,3.84,15,15,0,0,0,2.19-.19,5.49,5.49,0,0,0,4.88-5.83l-1.08-42.05,30.66-18.48S425.27,226.47,423.85,203.29Z" transform="translate(-264.54 -82.07)"/><path class="cls-2" d="M392.34,243l-4.36-1.6c-0.1,0-7.42,7.07-7.35,9.55l3.28,1.05,8.24-8Z" transform="translate(-264.54 -82.07)"/><path class="cls-2" d="M417.67,251.19s18.22-10.4,20.4-14.76c0.85-1.71,2.18-3.49-3.13-6.07l-24.3,17.32,1.05,6Z" transform="translate(-264.54 -82.07)"/><path class="cls-1" d="M441.47,212.24c-1.52-23.18-25.11,3.41-25.11,3.41l-16.21,15.89-14.6,16a14.39,14.39,0,0,0-3.63,11.56l5.91,45a4.42,4.42,0,0,0,4.43,3.84,15,15,0,0,0,2.19-.19,5.49,5.49,0,0,0,4.88-5.83l-1.08-42.05,30.66-18.48S442.86,233.43,441.47,212.24Z" transform="translate(-264.54 -82.07)"/><path class="cls-2" d="M427.46,137.69c18,7.44,17.6,18.06,17.6,18.06s-3.52,38.91-2.32,64.9c0.5,10.86-57.72,11.69-49-17.29,10.24-34.18,6.4-61.84,11.19-66S422.82,135.77,427.46,137.69Z" transform="translate(-264.54 -82.07)"/><ellipse class="cls-9" cx="424.27" cy="144.8" rx="6.82" ry="9.26" transform="translate(-86.32 437.47) rotate(-75.56)"/><path class="cls-5" d="M425.6,152.65a13,13,0,0,1-3.25-.42,12,12,0,0,1-6.3-3.86,6.86,6.86,0,0,1-1.59-6.1c1.05-4.1,6.31-6.3,11.71-4.91a11.94,11.94,0,0,1,6.29,3.86,6.86,6.86,0,0,1,1.59,6.1C433.23,150.58,429.72,152.65,425.6,152.65Zm-2.7-14c-3.33,0-6.12,1.55-6.77,4a5.2,5.2,0,0,0,1.26,4.59,10.23,10.23,0,0,0,5.39,3.28c4.49,1.15,8.8-.49,9.62-3.67a5.2,5.2,0,0,0-1.26-4.59,10.22,10.22,0,0,0-5.39-3.28A11.51,11.51,0,0,0,422.9,138.66Z" transform="translate(-264.54 -82.07)"/><path class="cls-9" d="M420.26,136.88a44.26,44.26,0,0,1-.16,6.41c-0.1,1.79,6.17,3.46,7.78,1.84s1-3.3,1.36-9.39S420.26,136.88,420.26,136.88Z" transform="translate(-264.54 -82.07)"/><path class="cls-10" d="M429.25,135.74s-1.54,5.64-9.15,7.81l0.12-5.13Z" transform="translate(-264.54 -82.07)"/><circle class="cls-9" cx="420.69" cy="124.86" r="13.82" transform="matrix(0.97, -0.25, 0.25, 0.97, -282.4, 27.21)"/><path class="cls-10" d="M423.86,125.37s-7.61,3.26-12.88,3.3-4.11-4.38-4.11-4.38L422.51,122Z" transform="translate(-264.54 -82.07)"/><path class="cls-11" d="M409.41,126.23s6.63-2.81,12.44-1.64a6.1,6.1,0,0,1,3.51,2.09,2.07,2.07,0,0,0,1.06.77c1,0.23,2.72-4,4.72-4.14s3.34,1.32,1.7,4-1.09,5.58-.33,6,8.78-5.72,1.7-19.74-25-6.47-27.84-3.63c0,0-2.94,2.57-5.34.28C401,110.17,398.36,130.28,409.41,126.23Z" transform="translate(-264.54 -82.07)"/><path class="cls-9" d="M435,184.18V194.7a4.28,4.28,0,0,1-1.4,3.17L412,217.56l2.45,3.75L443,200.62a5.8,5.8,0,0,0,2.36-4.09l1.93-18.34Z" transform="translate(-264.54 -82.07)"/><path class="cls-2" d="M443.54,150.49s6.55,9.86,9,35.8c0,0-11.19,3.62-17.55,1.57S443.54,150.49,443.54,150.49Z" transform="translate(-264.54 -82.07)"/><path class="cls-6" d="M433.79,163s-2.57,13.73-2.71,20.18a4.12,4.12,0,0,0,2.71,4h0V163Z" transform="translate(-264.54 -82.07)"/><path class="cls-4" d="M428.18,231.23l-4.77-.63-30.82-17.79a4.28,4.28,0,0,0-3.85.16l-21.84,12.6-2.89-.38v2.87h0a1.12,1.12,0,0,0,.66,1l34.93,20.16a4.28,4.28,0,0,0,3.85-.16l23.78-13.73a1.56,1.56,0,0,0,.94-1.3h0v-2.83Z" transform="translate(-264.54 -82.07)"/><path class="cls-6" d="M405,220l-2.19-1.26H378.77l-11.87,6.85-2.89-.38v2.87h0a1.12,1.12,0,0,0,.66,1l34.93,20.16a3.61,3.61,0,0,0,2,.37Z" transform="translate(-264.54 -82.07)"/><path class="cls-2" d="M365.29,225.36l-1.28-.17v2.87h0a1.12,1.12,0,0,0,.66,1l0.62,0.36v-4.07Z" transform="translate(-264.54 -82.07)"/><path class="cls-12" d="M400,249.4a4.47,4.47,0,0,0,3.28-.2v-4.89H400v5.09Z" transform="translate(-264.54 -82.07)"/><path class="cls-5" d="M399.6,246.37L364.68,226.2c-1-.57-0.86-1.57.28-2.23l23.78-13.73a4.28,4.28,0,0,1,3.85-.16l34.93,20.16c1,0.57.86,1.57-.28,2.23l-23.78,13.73A4.28,4.28,0,0,1,399.6,246.37Z" transform="translate(-264.54 -82.07)"/><path class="cls-1" d="M399,243.31l-29-16.77c-0.82-.47-0.72-1.3.23-1.85l12.74-7.17a3.56,3.56,0,0,1,3.21-.13l29,16.77c0.82,0.47.72,1.3-.23,1.85l-12.74,7.17A3.56,3.56,0,0,1,399,243.31Z" transform="translate(-264.54 -82.07)"/><path class="cls-9" d="M390.09,209.59L389.73,212a17.82,17.82,0,0,0,.16,6.18l0.43,2.12a3,3,0,0,0,2.39,2.35h0a1.65,1.65,0,0,0,1.93-1.44l0.58-5.15s1.32,1.73,2,1.73-0.71-5.16-2.15-8.08S390.09,209.59,390.09,209.59Z" transform="translate(-264.54 -82.07)"/><path class="cls-9" d="M401.93,171.29l-3.75,7.42a14.55,14.55,0,0,0-1.53,5.63L395,209.71l-4.93-.12-2.24-28.49a10.43,10.43,0,0,1,.13-2.63L390.53,164Z" transform="translate(-264.54 -82.07)"/><path class="cls-4" d="M398.42,248.3l-2.93-3.82-30.8-17.83a4.28,4.28,0,0,1-1.78-3.42l0-25.21-1.77-2.31,1.66-1h0a1.12,1.12,0,0,1,1.21.07L398.94,215a4.28,4.28,0,0,1,1.78,3.42l0,27.46a1.56,1.56,0,0,1-.65,1.46h0Z" transform="translate(-264.54 -82.07)"/><path class="cls-6" d="M377.12,233.85l-2.19-1.27-12-20.86V198l-1.77-2.31,1.66-1h0a1.12,1.12,0,0,1,1.21.07L398.94,215a3.61,3.61,0,0,1,1.32,1.54Z" transform="translate(-264.54 -82.07)"/><path class="cls-2" d="M362,196.73l-0.79-1,1.66-1h0a1.12,1.12,0,0,1,1.21.07l0.62,0.36Z" transform="translate(-264.54 -82.07)"/><path class="cls-12" d="M399.26,215.24a4.47,4.47,0,0,1,1.46,2.94l-3.41,2-1.63-2.84Z" transform="translate(-264.54 -82.07)"/><path class="cls-2" d="M397.28,216l-34.9-20.21c-1-.57-1.79,0-1.79,1.35l0,27.46a4.28,4.28,0,0,0,1.78,3.42l34.9,20.21c1,0.57,1.79,0,1.79-1.35l0-27.46A4.28,4.28,0,0,0,397.28,216Z" transform="translate(-264.54 -82.07)"/><path class="cls-9" d="M414.44,221.31l-0.56,1.16A7.76,7.76,0,0,1,411,225.7l-3.47,2.14a3.45,3.45,0,0,1-3.54.08l-0.12-.07a2.09,2.09,0,0,1-.29-3.2l3.62-3.72s-2,1.56-2.61.93c-0.42-.46,2-2.71,3.81-2.78a7.25,7.25,0,0,0,3.61-1.52Z" transform="translate(-264.54 -82.07)"/><path class="cls-2" d="M405.25,137.3S392,151.75,386.62,165a27.11,27.11,0,0,0,15.66,11.39C413.39,179.61,405.25,137.3,405.25,137.3Z" transform="translate(-264.54 -82.07)"/><path class="cls-6" d="M399.77,175.54l2.15-20.79-5.07,19.48A29.09,29.09,0,0,0,399.77,175.54Z" transform="translate(-264.54 -82.07)"/><path class="cls-5" d="M415.2,134.38l-3.57-1a8.61,8.61,0,0,0,4.19,3.36c2.49,0.68,2.87-1.42,2.87-1.42Z" transform="translate(-264.54 -82.07)"/><path class="cls-1" d="M347.47,102.43a10,10,0,1,1,10-10A10,10,0,0,1,347.47,102.43Zm0-17.81a7.81,7.81,0,1,0,7.81,7.81A7.82,7.82,0,0,0,347.47,84.62Z" transform="translate(-264.54 -82.07)"/><path class="cls-2" d="M549.55,174.47a7.09,7.09,0,1,1,7.09-7.09A7.1,7.1,0,0,1,549.55,174.47Zm0-12a4.91,4.91,0,1,0,4.91,4.91A4.91,4.91,0,0,0,549.55,162.47Z" transform="translate(-264.54 -82.07)"/><path class="cls-2" d="M317.14,302.53l-4.81-9.79,9.79-4.81,4.81,9.79Zm-1.89-8.79,2.89,5.87,5.87-2.89-2.89-5.87Z" transform="translate(-264.54 -82.07)"/><path class="cls-2" d="M459.17,150.85l-4.81-9.79,9.79-4.81L469,146Zm-1.89-8.79,2.89,5.87L466,145l-2.89-5.87Z" transform="translate(-264.54 -82.07)"/><rect class="cls-2" x="300.35" y="243.7" width="5.01" height="5.01" transform="translate(-342.1 76.81) rotate(-26.18)"/><path class="cls-13" d="M480.31,97.75L453.57,82.32a1.37,1.37,0,0,0-1.38-.11v0l-2.59,1.5,1.82,0.67v19.47a5.15,5.15,0,0,0,2.15,4.11l25.56,14.76V125l2.62-1.51h0a1.91,1.91,0,0,0,.73-1.72V101.87A5.15,5.15,0,0,0,480.31,97.75Z" transform="translate(-264.54 -82.07)"/><path class="cls-11" d="M477.67,124.9l-26.74-15.44a5.15,5.15,0,0,1-2.15-4.11V85.47c0-1.58,1-2.31,2.15-1.63l26.74,15.44a5.15,5.15,0,0,1,2.15,4.11v19.88C479.82,124.85,478.86,125.58,477.67,124.9Z" transform="translate(-264.54 -82.07)"/><path class="cls-5" d="M459.92,102.61a1.1,1.1,0,0,1-1.8,1,4,4,0,0,1-1.8-3.12,1.1,1.1,0,0,1,1.8-1A4,4,0,0,1,459.92,102.61Z" transform="translate(-264.54 -82.07)"/><path class="cls-5" d="M465.39,105.76a1.1,1.1,0,0,1-1.8,1,4,4,0,0,1-1.8-3.12,1.1,1.1,0,0,1,1.8-1A4,4,0,0,1,465.39,105.76Z" transform="translate(-264.54 -82.07)"/><path class="cls-5" d="M470.86,108.92a1.1,1.1,0,0,1-1.8,1,4,4,0,0,1-1.8-3.12,1.1,1.1,0,0,1,1.8-1A4,4,0,0,1,470.86,108.92Z" transform="translate(-264.54 -82.07)"/><path class="cls-2" d="M295.47,266.91l-26.23-15.14a1.34,1.34,0,0,0-1.36-.11v0l-2.54,1.47,1.79,0.65v19.1a5.05,5.05,0,0,0,2.11,4l25.07,14.48v2.24l2.57-1.48h0a1.87,1.87,0,0,0,.71-1.68v-19.5A5.05,5.05,0,0,0,295.47,266.91Z" transform="translate(-264.54 -82.07)"/><path class="cls-1" d="M292.88,293.53l-26.23-15.14a5.05,5.05,0,0,1-2.11-4v-19.5c0-1.55.94-2.27,2.11-1.6l26.23,15.14a5.05,5.05,0,0,1,2.11,4v19.5C295,293.49,294,294.21,292.88,293.53Z" transform="translate(-264.54 -82.07)"/><path class="cls-5" d="M275.47,271.67a1.08,1.08,0,0,1-1.77,1,3.91,3.91,0,0,1-1.77-3.07,1.08,1.08,0,0,1,1.77-1A3.91,3.91,0,0,1,275.47,271.67Z" transform="translate(-264.54 -82.07)"/><path class="cls-5" d="M280.83,274.76a1.08,1.08,0,0,1-1.77,1,3.91,3.91,0,0,1-1.77-3.07,1.08,1.08,0,0,1,1.77-1A3.91,3.91,0,0,1,280.83,274.76Z" transform="translate(-264.54 -82.07)"/><path class="cls-5" d="M286.2,277.86a1.08,1.08,0,0,1-1.77,1,3.91,3.91,0,0,1-1.77-3.07,1.08,1.08,0,0,1,1.77-1A3.91,3.91,0,0,1,286.2,277.86Z" transform="translate(-264.54 -82.07)"/></svg>